<mxfile host="app.diagrams.net" modified="2022-10-26T00:43:43.840Z" agent="5.0 (X11; Linux x86_64) AppleWebKit/537.36 (KHTML, like Gecko) Chrome/106.0.0.0 Safari/537.36" etag="4EDlQluapvAocGS1tbzj" version="20.4.1" type="github">
  <diagram id="6a731a19-8d31-9384-78a2-239565b7b9f0" name="Page-1">
    <mxGraphModel dx="2311" dy="22" grid="1" gridSize="10" guides="1" tooltips="1" connect="1" arrows="1" fold="1" page="1" pageScale="1" pageWidth="1100" pageHeight="850" background="#FCFFE6" math="1" shadow="1">
      <root>
        <mxCell id="0" />
        <mxCell id="1" parent="0" />
        <mxCell id="zYnenloDROd6r4t-d3MM-1082" style="edgeStyle=orthogonalEdgeStyle;rounded=0;orthogonalLoop=1;jettySize=auto;html=1;entryX=0;entryY=0.5;entryDx=0;entryDy=0;" edge="1" parent="1" source="zYnenloDROd6r4t-d3MM-1059" target="zYnenloDROd6r4t-d3MM-1063">
          <mxGeometry relative="1" as="geometry" />
        </mxCell>
        <mxCell id="zYnenloDROd6r4t-d3MM-1083" style="edgeStyle=orthogonalEdgeStyle;rounded=0;orthogonalLoop=1;jettySize=auto;html=1;entryX=0;entryY=0.5;entryDx=0;entryDy=0;" edge="1" parent="1" source="zYnenloDROd6r4t-d3MM-1059" target="zYnenloDROd6r4t-d3MM-1065">
          <mxGeometry relative="1" as="geometry" />
        </mxCell>
        <mxCell id="zYnenloDROd6r4t-d3MM-1084" style="edgeStyle=orthogonalEdgeStyle;rounded=0;orthogonalLoop=1;jettySize=auto;html=1;" edge="1" parent="1" source="zYnenloDROd6r4t-d3MM-1059" target="zYnenloDROd6r4t-d3MM-1064">
          <mxGeometry relative="1" as="geometry" />
        </mxCell>
        <mxCell id="zYnenloDROd6r4t-d3MM-1059" value="APARTADO I&lt;br&gt;APROXIMACIONES A LA CIRUGÍA ROBÓTICA" style="rounded=0;whiteSpace=wrap;html=1;" vertex="1" parent="1">
          <mxGeometry x="40" y="1195" width="180" height="90" as="geometry" />
        </mxCell>
        <mxCell id="zYnenloDROd6r4t-d3MM-1060" value="APARTADO II&lt;br&gt;LA CARGA DE LA PRUEBA SOBRE RELACIÓN DE CAUSALIDAD" style="rounded=0;whiteSpace=wrap;html=1;" vertex="1" parent="1">
          <mxGeometry x="50" y="1740" width="180" height="90" as="geometry" />
        </mxCell>
        <mxCell id="zYnenloDROd6r4t-d3MM-1061" value="APARTADO III&lt;br&gt;LA INTERPRETACIÓN MODERNA DEL ART. 2329" style="rounded=0;whiteSpace=wrap;html=1;" vertex="1" parent="1">
          <mxGeometry x="50" y="1850" width="180" height="90" as="geometry" />
        </mxCell>
        <mxCell id="zYnenloDROd6r4t-d3MM-1062" value="APARTADO IV&lt;br&gt;CONCLUSIONES" style="rounded=0;whiteSpace=wrap;html=1;" vertex="1" parent="1">
          <mxGeometry x="50" y="1960" width="180" height="90" as="geometry" />
        </mxCell>
        <mxCell id="zYnenloDROd6r4t-d3MM-1073" style="edgeStyle=orthogonalEdgeStyle;rounded=0;orthogonalLoop=1;jettySize=auto;html=1;entryX=0;entryY=0.5;entryDx=0;entryDy=0;" edge="1" parent="1" source="zYnenloDROd6r4t-d3MM-1063" target="zYnenloDROd6r4t-d3MM-1066">
          <mxGeometry relative="1" as="geometry" />
        </mxCell>
        <mxCell id="zYnenloDROd6r4t-d3MM-1074" style="edgeStyle=orthogonalEdgeStyle;rounded=0;orthogonalLoop=1;jettySize=auto;html=1;" edge="1" parent="1" source="zYnenloDROd6r4t-d3MM-1063" target="zYnenloDROd6r4t-d3MM-1070">
          <mxGeometry relative="1" as="geometry" />
        </mxCell>
        <mxCell id="zYnenloDROd6r4t-d3MM-1075" style="edgeStyle=orthogonalEdgeStyle;rounded=0;orthogonalLoop=1;jettySize=auto;html=1;entryX=0;entryY=0.5;entryDx=0;entryDy=0;" edge="1" parent="1" source="zYnenloDROd6r4t-d3MM-1063" target="zYnenloDROd6r4t-d3MM-1068">
          <mxGeometry relative="1" as="geometry" />
        </mxCell>
        <mxCell id="zYnenloDROd6r4t-d3MM-1077" value="" style="edgeStyle=orthogonalEdgeStyle;rounded=0;orthogonalLoop=1;jettySize=auto;html=1;" edge="1" parent="1" source="zYnenloDROd6r4t-d3MM-1064" target="zYnenloDROd6r4t-d3MM-1076">
          <mxGeometry relative="1" as="geometry" />
        </mxCell>
        <mxCell id="zYnenloDROd6r4t-d3MM-1079" value="" style="edgeStyle=orthogonalEdgeStyle;rounded=0;orthogonalLoop=1;jettySize=auto;html=1;" edge="1" parent="1" source="zYnenloDROd6r4t-d3MM-1064" target="zYnenloDROd6r4t-d3MM-1078">
          <mxGeometry relative="1" as="geometry" />
        </mxCell>
        <mxCell id="zYnenloDROd6r4t-d3MM-1064" value="Regulación normativa" style="rounded=1;whiteSpace=wrap;html=1;" vertex="1" parent="1">
          <mxGeometry x="300" y="1210" width="120" height="60" as="geometry" />
        </mxCell>
        <mxCell id="zYnenloDROd6r4t-d3MM-1081" value="" style="edgeStyle=orthogonalEdgeStyle;rounded=0;orthogonalLoop=1;jettySize=auto;html=1;" edge="1" parent="1" source="zYnenloDROd6r4t-d3MM-1065" target="zYnenloDROd6r4t-d3MM-1080">
          <mxGeometry relative="1" as="geometry" />
        </mxCell>
        <mxCell id="zYnenloDROd6r4t-d3MM-1087" value="" style="edgeStyle=orthogonalEdgeStyle;rounded=0;orthogonalLoop=1;jettySize=auto;html=1;" edge="1" parent="1" source="zYnenloDROd6r4t-d3MM-1065" target="zYnenloDROd6r4t-d3MM-1086">
          <mxGeometry relative="1" as="geometry" />
        </mxCell>
        <mxCell id="zYnenloDROd6r4t-d3MM-1090" style="edgeStyle=orthogonalEdgeStyle;rounded=0;orthogonalLoop=1;jettySize=auto;html=1;entryX=-0.001;entryY=0.589;entryDx=0;entryDy=0;entryPerimeter=0;" edge="1" parent="1" source="zYnenloDROd6r4t-d3MM-1065" target="zYnenloDROd6r4t-d3MM-1088">
          <mxGeometry relative="1" as="geometry" />
        </mxCell>
        <mxCell id="zYnenloDROd6r4t-d3MM-1065" value="Casos del derecho comparado" style="rounded=1;whiteSpace=wrap;html=1;" vertex="1" parent="1">
          <mxGeometry x="300" y="1380" width="120" height="60" as="geometry" />
        </mxCell>
        <mxCell id="zYnenloDROd6r4t-d3MM-1066" value="Definición" style="ellipse;whiteSpace=wrap;html=1;rounded=1;" vertex="1" parent="1">
          <mxGeometry x="500" y="970" width="120" height="60" as="geometry" />
        </mxCell>
        <mxCell id="zYnenloDROd6r4t-d3MM-1068" value="Tipos" style="ellipse;whiteSpace=wrap;html=1;rounded=1;" vertex="1" parent="1">
          <mxGeometry x="500" y="1110" width="120" height="60" as="geometry" />
        </mxCell>
        <mxCell id="zYnenloDROd6r4t-d3MM-1070" value="Orígenes" style="ellipse;whiteSpace=wrap;html=1;rounded=1;" vertex="1" parent="1">
          <mxGeometry x="500" y="1040" width="120" height="60" as="geometry" />
        </mxCell>
        <mxCell id="zYnenloDROd6r4t-d3MM-1076" value="Estados Unidos" style="ellipse;whiteSpace=wrap;html=1;rounded=1;" vertex="1" parent="1">
          <mxGeometry x="500" y="1190" width="120" height="60" as="geometry" />
        </mxCell>
        <mxCell id="zYnenloDROd6r4t-d3MM-1078" value="Chile" style="ellipse;whiteSpace=wrap;html=1;rounded=1;" vertex="1" parent="1">
          <mxGeometry x="500" y="1255" width="120" height="60" as="geometry" />
        </mxCell>
        <mxCell id="zYnenloDROd6r4t-d3MM-1080" value="Caso Mraceck vs. Bryn Mawr Hospital" style="ellipse;whiteSpace=wrap;html=1;rounded=1;" vertex="1" parent="1">
          <mxGeometry x="500" y="1330" width="120" height="60" as="geometry" />
        </mxCell>
        <mxCell id="zYnenloDROd6r4t-d3MM-1086" value="Caso Taylor vs. Intuitive Surgical" style="ellipse;whiteSpace=wrap;html=1;rounded=1;" vertex="1" parent="1">
          <mxGeometry x="500" y="1400" width="120" height="60" as="geometry" />
        </mxCell>
        <mxCell id="zYnenloDROd6r4t-d3MM-1088" value="Caso Brown vs. Griffin" style="ellipse;whiteSpace=wrap;html=1;rounded=1;" vertex="1" parent="1">
          <mxGeometry x="500" y="1470" width="120" height="60" as="geometry" />
        </mxCell>
        <mxCell id="zYnenloDROd6r4t-d3MM-1100" style="edgeStyle=orthogonalEdgeStyle;rounded=0;orthogonalLoop=1;jettySize=auto;html=1;dashed=1;dashPattern=1 4;" edge="1" parent="1" source="zYnenloDROd6r4t-d3MM-1095" target="zYnenloDROd6r4t-d3MM-1063">
          <mxGeometry relative="1" as="geometry" />
        </mxCell>
        <mxCell id="zYnenloDROd6r4t-d3MM-1095" value="OBJETIVO DE" style="swimlane;fontStyle=0;childLayout=stackLayout;horizontal=1;startSize=30;horizontalStack=0;resizeParent=1;resizeParentMax=0;resizeLast=0;collapsible=1;marginBottom=0;fillColor=#f8cecc;strokeColor=#b85450;" vertex="1" parent="1">
          <mxGeometry x="20" y="870" width="420" height="120" as="geometry">
            <mxRectangle x="20" y="870" width="100" height="30" as="alternateBounds" />
          </mxGeometry>
        </mxCell>
        <mxCell id="zYnenloDROd6r4t-d3MM-1096" value="Permite a la C.S:&#xa;1) conocer del instrumento médico del que se trata el caso &#xa;2) entender su implementación a lo largo del tiempo.&#xa;3) Entender qué nivel de control tiene el médico cirujano respecto del comportamiento del robot" style="text;strokeColor=none;fillColor=none;align=left;verticalAlign=middle;spacingLeft=4;spacingRight=4;overflow=hidden;points=[[0,0.5],[1,0.5]];portConstraint=eastwest;rotatable=0;" vertex="1" parent="zYnenloDROd6r4t-d3MM-1095">
          <mxGeometry y="30" width="420" height="90" as="geometry" />
        </mxCell>
        <mxCell id="zYnenloDROd6r4t-d3MM-1105" style="edgeStyle=orthogonalEdgeStyle;rounded=0;orthogonalLoop=1;jettySize=auto;html=1;entryX=0.25;entryY=0;entryDx=0;entryDy=0;dashed=1;dashPattern=1 4;" edge="1" parent="1" source="zYnenloDROd6r4t-d3MM-1101" target="zYnenloDROd6r4t-d3MM-1064">
          <mxGeometry relative="1" as="geometry" />
        </mxCell>
        <mxCell id="zYnenloDROd6r4t-d3MM-1101" value="OBJETIVO DE" style="swimlane;fontStyle=0;childLayout=stackLayout;horizontal=1;startSize=30;horizontalStack=0;resizeParent=1;resizeParentMax=0;resizeLast=0;collapsible=1;marginBottom=0;fillColor=#f8cecc;strokeColor=#b85450;labelBackgroundColor=none;shadow=0;glass=0;sketch=0;" vertex="1" parent="1">
          <mxGeometry x="750" y="870" width="400" height="120" as="geometry">
            <mxRectangle x="750" y="870" width="120" height="30" as="alternateBounds" />
          </mxGeometry>
        </mxCell>
        <mxCell id="zYnenloDROd6r4t-d3MM-1102" value="Comprender como ordenamientos comparados han regulado el tema" style="text;strokeColor=none;fillColor=none;align=left;verticalAlign=middle;spacingLeft=4;spacingRight=4;overflow=hidden;points=[[0,0.5],[1,0.5]];portConstraint=eastwest;rotatable=0;" vertex="1" parent="zYnenloDROd6r4t-d3MM-1101">
          <mxGeometry y="30" width="400" height="30" as="geometry" />
        </mxCell>
        <mxCell id="zYnenloDROd6r4t-d3MM-1103" value="Comprender como se ha regulado en Chile" style="text;strokeColor=none;fillColor=none;align=left;verticalAlign=middle;spacingLeft=4;spacingRight=4;overflow=hidden;points=[[0,0.5],[1,0.5]];portConstraint=eastwest;rotatable=0;" vertex="1" parent="zYnenloDROd6r4t-d3MM-1101">
          <mxGeometry y="60" width="400" height="30" as="geometry" />
        </mxCell>
        <mxCell id="zYnenloDROd6r4t-d3MM-1104" value="Tener antecedente de cómo mejor regular el tipo de casos " style="text;strokeColor=none;fillColor=none;align=left;verticalAlign=middle;spacingLeft=4;spacingRight=4;overflow=hidden;points=[[0,0.5],[1,0.5]];portConstraint=eastwest;rotatable=0;" vertex="1" parent="zYnenloDROd6r4t-d3MM-1101">
          <mxGeometry y="90" width="400" height="30" as="geometry" />
        </mxCell>
        <mxCell id="zYnenloDROd6r4t-d3MM-1063" value="Robots quirurgicos" style="rounded=1;whiteSpace=wrap;html=1;" vertex="1" parent="1">
          <mxGeometry x="300" y="1040" width="120" height="60" as="geometry" />
        </mxCell>
        <mxCell id="zYnenloDROd6r4t-d3MM-1111" style="edgeStyle=orthogonalEdgeStyle;rounded=0;orthogonalLoop=1;jettySize=auto;html=1;dashed=1;dashPattern=1 4;" edge="1" parent="1" source="zYnenloDROd6r4t-d3MM-1107" target="zYnenloDROd6r4t-d3MM-1065">
          <mxGeometry relative="1" as="geometry" />
        </mxCell>
        <mxCell id="zYnenloDROd6r4t-d3MM-1107" value="OBJETIVO DE" style="swimlane;fontStyle=0;childLayout=stackLayout;horizontal=1;startSize=30;horizontalStack=0;resizeParent=1;resizeParentMax=0;resizeLast=0;collapsible=1;marginBottom=0;shadow=0;glass=0;dashed=1;dashPattern=1 4;labelBackgroundColor=none;sketch=0;fillColor=#f8cecc;strokeColor=#b85450;" vertex="1" parent="1">
          <mxGeometry x="20" y="1480" width="370" height="120" as="geometry">
            <mxRectangle x="20" y="1480" width="120" height="30" as="alternateBounds" />
          </mxGeometry>
        </mxCell>
        <mxCell id="zYnenloDROd6r4t-d3MM-1108" value="Error en el robot" style="text;strokeColor=none;fillColor=none;align=left;verticalAlign=middle;spacingLeft=4;spacingRight=4;overflow=hidden;points=[[0,0.5],[1,0.5]];portConstraint=eastwest;rotatable=0;shadow=0;glass=0;dashed=1;dashPattern=1 4;labelBackgroundColor=none;sketch=0;" vertex="1" parent="zYnenloDROd6r4t-d3MM-1107">
          <mxGeometry y="30" width="370" height="30" as="geometry" />
        </mxCell>
        <mxCell id="zYnenloDROd6r4t-d3MM-1109" value="Error en el uso" style="text;strokeColor=none;fillColor=none;align=left;verticalAlign=middle;spacingLeft=4;spacingRight=4;overflow=hidden;points=[[0,0.5],[1,0.5]];portConstraint=eastwest;rotatable=0;shadow=0;glass=0;dashed=1;dashPattern=1 4;labelBackgroundColor=none;sketch=0;" vertex="1" parent="zYnenloDROd6r4t-d3MM-1107">
          <mxGeometry y="60" width="370" height="30" as="geometry" />
        </mxCell>
        <mxCell id="zYnenloDROd6r4t-d3MM-1110" value="Error por falta de experiencia" style="text;strokeColor=none;fillColor=none;align=left;verticalAlign=middle;spacingLeft=4;spacingRight=4;overflow=hidden;points=[[0,0.5],[1,0.5]];portConstraint=eastwest;rotatable=0;shadow=0;glass=0;dashed=1;dashPattern=1 4;labelBackgroundColor=none;sketch=0;" vertex="1" parent="zYnenloDROd6r4t-d3MM-1107">
          <mxGeometry y="90" width="370" height="30" as="geometry" />
        </mxCell>
      </root>
    </mxGraphModel>
  </diagram>
</mxfile>
